<svg xmlns="http://www.w3.org/2000/svg" width="594" height="636" viewBox="0 0 594 636" role="img" aria-label="Benchmark summary tables">
<style>text{font-family:"-apple-system, BlinkMacSystemFont, Segoe UI, Helvetica, Arial, sans-serif;font-size:13px;font-variant-numeric:tabular-nums}</style>
<text x="8" y="25" font-weight="600" fill="#1f2328">Server downstream on-wire at 100 connections</text>
<text x="586" y="25" text-anchor="end" fill="#656d76" font-size="12">KB/s, lower is better</text>
<text x="8" y="53" fill="#656d76" font-size="11" letter-spacing="0.5">TEST</text>
<text x="212" y="53" text-anchor="end" font-weight="600" fill="#eb6834">PurrNet</text>
<text x="304" y="53" text-anchor="end" font-weight="600" fill="#2a78d6">FishNet</text>
<text x="396" y="53" text-anchor="end" font-weight="600" fill="#1baf7a">Mirror</text>
<text x="488" y="53" text-anchor="end" font-weight="600" fill="#eda100">NGO</text>
<text x="580" y="53" text-anchor="end" font-weight="600" fill="#e87ba4">Fusion</text>
<line x1="8" y1="64" x2="586" y2="64" stroke="#d0d7de" stroke-width="1"/>
<text x="8" y="82" fill="#1f2328">Idle</text>
<text x="212" y="82" text-anchor="end" fill="#1f2328" font-weight="400">13.6</text>
<text x="304" y="82" text-anchor="end" fill="#1f2328" font-weight="400">14.1</text>
<text x="396" y="82" text-anchor="end" fill="#1f2328" font-weight="400">171</text>
<rect x="410" y="67" width="80" height="21" rx="5" fill="#dafbe1"/>
<text x="488" y="82" text-anchor="end" fill="#1a7f37" font-weight="600">11.6</text>
<text x="580" y="82" text-anchor="end" fill="#1f2328" font-weight="400">224</text>
<line x1="8" y1="91" x2="586" y2="91" stroke="#d0d7de" stroke-width="0.5"/>
<text x="8" y="109" fill="#1f2328">MoveY</text>
<rect x="134" y="94" width="80" height="21" rx="5" fill="#dafbe1"/>
<text x="212" y="109" text-anchor="end" fill="#1a7f37" font-weight="600">490</text>
<text x="304" y="109" text-anchor="end" fill="#1f2328" font-weight="400">1,248</text>
<text x="396" y="109" text-anchor="end" fill="#1f2328" font-weight="400">2,428</text>
<text x="488" y="109" text-anchor="end" fill="#1f2328" font-weight="400">3,110</text>
<text x="580" y="109" text-anchor="end" fill="#1f2328" font-weight="400">2,863</text>
<line x1="8" y1="118" x2="586" y2="118" stroke="#d0d7de" stroke-width="0.5"/>
<text x="8" y="136" fill="#1f2328">MoveAllAxis</text>
<rect x="134" y="121" width="80" height="21" rx="5" fill="#dafbe1"/>
<text x="212" y="136" text-anchor="end" fill="#1a7f37" font-weight="600">1,265</text>
<text x="304" y="136" text-anchor="end" fill="#1f2328" font-weight="400">2,025</text>
<text x="396" y="136" text-anchor="end" fill="#1f2328" font-weight="400">4,427</text>
<text x="488" y="136" text-anchor="end" fill="#1f2328" font-weight="400">4,939</text>
<text x="580" y="136" text-anchor="end" fill="#1f2328" font-weight="400">2,779</text>
<line x1="8" y1="145" x2="586" y2="145" stroke="#d0d7de" stroke-width="0.5"/>
<text x="8" y="163" fill="#1f2328">MoveWander</text>
<rect x="134" y="148" width="80" height="21" rx="5" fill="#dafbe1"/>
<text x="212" y="163" text-anchor="end" fill="#1a7f37" font-weight="600">1,679</text>
<text x="304" y="163" text-anchor="end" fill="#1f2328" font-weight="400">2,839</text>
<text x="396" y="163" text-anchor="end" fill="#1f2328" font-weight="400">5,192</text>
<text x="488" y="163" text-anchor="end" fill="#1f2328" font-weight="400">6,548</text>
<text x="580" y="163" text-anchor="end" fill="#1f2328" font-weight="400">3,567</text>
<line x1="8" y1="172" x2="586" y2="172" stroke="#d0d7de" stroke-width="0.5"/>
<text x="8" y="190" fill="#1f2328">SendRPC</text>
<text x="212" y="190" text-anchor="end" fill="#1f2328" font-weight="400">1,783</text>
<rect x="226" y="175" width="80" height="21" rx="5" fill="#dafbe1"/>
<text x="304" y="190" text-anchor="end" fill="#1a7f37" font-weight="600">1,447</text>
<text x="396" y="190" text-anchor="end" fill="#1f2328" font-weight="400">3,015</text>
<text x="488" y="190" text-anchor="end" fill="#1f2328" font-weight="400">3,241</text>
<text x="580" y="190" text-anchor="end" fill="#1f2328" font-weight="400">3,793</text>
<line x1="8" y1="199" x2="586" y2="199" stroke="#d0d7de" stroke-width="0.5"/>
<text x="8" y="217" fill="#1f2328">Static</text>
<text x="212" y="217" text-anchor="end" fill="#1f2328" font-weight="400">13.8</text>
<text x="304" y="217" text-anchor="end" fill="#1f2328" font-weight="400">14.1</text>
<text x="396" y="217" text-anchor="end" fill="#1f2328" font-weight="400">171</text>
<rect x="410" y="202" width="80" height="21" rx="5" fill="#dafbe1"/>
<text x="488" y="217" text-anchor="end" fill="#1a7f37" font-weight="600">11.6</text>
<text x="580" y="217" text-anchor="end" fill="#1f2328" font-weight="400">410</text>
<line x1="8" y1="226" x2="586" y2="226" stroke="#d0d7de" stroke-width="0.5"/>
<text x="8" y="244" fill="#1f2328">SpawnChurn</text>
<text x="212" y="244" text-anchor="end" fill="#1f2328" font-weight="400">804</text>
<text x="304" y="244" text-anchor="end" fill="#1f2328" font-weight="400">646</text>
<text x="396" y="244" text-anchor="end" fill="#1f2328" font-weight="400">795</text>
<text x="488" y="244" text-anchor="end" fill="#1f2328" font-weight="400">944</text>
<rect x="502" y="229" width="80" height="21" rx="5" fill="#dafbe1"/>
<text x="580" y="244" text-anchor="end" fill="#1a7f37" font-weight="600">371</text>
<line x1="8" y1="253" x2="586" y2="253" stroke="#d0d7de" stroke-width="0.5"/>
<text x="8" y="271" fill="#1f2328">ClientInput</text>
<rect x="134" y="256" width="80" height="21" rx="5" fill="#dafbe1"/>
<text x="212" y="271" text-anchor="end" fill="#1a7f37" font-weight="600">92.5</text>
<text x="304" y="271" text-anchor="end" fill="#1f2328" font-weight="400">93.8</text>
<text x="396" y="271" text-anchor="end" fill="#1f2328" font-weight="400">280</text>
<text x="488" y="271" text-anchor="end" fill="#1f2328" font-weight="400">115</text>
<text x="580" y="271" text-anchor="end" fill="#1f2328" font-weight="400">216</text>
<line x1="8" y1="280" x2="586" y2="280" stroke="#d0d7de" stroke-width="0.5"/>
<text x="8" y="298" fill="#1f2328">SyncVars</text>
<rect x="134" y="283" width="80" height="21" rx="5" fill="#dafbe1"/>
<text x="212" y="298" text-anchor="end" fill="#1a7f37" font-weight="600">2,660</text>
<text x="304" y="298" text-anchor="end" fill="#1f2328" font-weight="400">3,645</text>
<text x="396" y="298" text-anchor="end" fill="#1f2328" font-weight="400">4,975</text>
<text x="488" y="298" text-anchor="end" fill="#1f2328" font-weight="400">4,156</text>
<text x="580" y="298" text-anchor="end" fill="#1f2328" font-weight="400">3,386</text>
<line x1="8" y1="307" x2="586" y2="307" stroke="#d0d7de" stroke-width="0.5"/>
<text x="8" y="346" font-weight="600" fill="#1f2328">Server CPU at 100 connections</text>
<text x="586" y="346" text-anchor="end" fill="#656d76" font-size="12">% of one core, lower is better</text>
<text x="8" y="374" fill="#656d76" font-size="11" letter-spacing="0.5">TEST</text>
<text x="212" y="374" text-anchor="end" font-weight="600" fill="#eb6834">PurrNet</text>
<text x="304" y="374" text-anchor="end" font-weight="600" fill="#2a78d6">FishNet</text>
<text x="396" y="374" text-anchor="end" font-weight="600" fill="#1baf7a">Mirror</text>
<text x="488" y="374" text-anchor="end" font-weight="600" fill="#eda100">NGO</text>
<text x="580" y="374" text-anchor="end" font-weight="600" fill="#e87ba4">Fusion</text>
<line x1="8" y1="385" x2="586" y2="385" stroke="#d0d7de" stroke-width="1"/>
<text x="8" y="403" fill="#1f2328">Idle</text>
<text x="212" y="403" text-anchor="end" fill="#1f2328" font-weight="400">7.0</text>
<rect x="226" y="388" width="80" height="21" rx="5" fill="#dafbe1"/>
<text x="304" y="403" text-anchor="end" fill="#1a7f37" font-weight="600">3.6</text>
<text x="396" y="403" text-anchor="end" fill="#1f2328" font-weight="400">7.2</text>
<text x="488" y="403" text-anchor="end" fill="#1f2328" font-weight="400">6.0</text>
<text x="580" y="403" text-anchor="end" fill="#1f2328" font-weight="400">8.2</text>
<line x1="8" y1="412" x2="586" y2="412" stroke="#d0d7de" stroke-width="0.5"/>
<text x="8" y="430" fill="#1f2328">MoveY</text>
<text x="212" y="430" text-anchor="end" fill="#1f2328" font-weight="400">24.5</text>
<rect x="226" y="415" width="80" height="21" rx="5" fill="#dafbe1"/>
<text x="304" y="430" text-anchor="end" fill="#1a7f37" font-weight="600">7.4</text>
<text x="396" y="430" text-anchor="end" fill="#1f2328" font-weight="400">10.9</text>
<text x="488" y="430" text-anchor="end" fill="#1f2328" font-weight="400">66.3</text>
<text x="580" y="430" text-anchor="end" fill="#1f2328" font-weight="400">14.3</text>
<line x1="8" y1="439" x2="586" y2="439" stroke="#d0d7de" stroke-width="0.5"/>
<text x="8" y="457" fill="#1f2328">MoveAllAxis</text>
<text x="212" y="457" text-anchor="end" fill="#1f2328" font-weight="400">19.7</text>
<rect x="226" y="442" width="80" height="21" rx="5" fill="#dafbe1"/>
<text x="304" y="457" text-anchor="end" fill="#1a7f37" font-weight="600">4.7</text>
<text x="396" y="457" text-anchor="end" fill="#1f2328" font-weight="400">12.8</text>
<text x="488" y="457" text-anchor="end" fill="#1f2328" font-weight="400">49.6</text>
<text x="580" y="457" text-anchor="end" fill="#1f2328" font-weight="400">13.8</text>
<line x1="8" y1="466" x2="586" y2="466" stroke="#d0d7de" stroke-width="0.5"/>
<text x="8" y="484" fill="#1f2328">MoveWander</text>
<text x="212" y="484" text-anchor="end" fill="#1f2328" font-weight="400">19.3</text>
<rect x="226" y="469" width="80" height="21" rx="5" fill="#dafbe1"/>
<text x="304" y="484" text-anchor="end" fill="#1a7f37" font-weight="600">4.3</text>
<text x="396" y="484" text-anchor="end" fill="#1f2328" font-weight="400">15.5</text>
<text x="488" y="484" text-anchor="end" fill="#1f2328" font-weight="400">57.5</text>
<text x="580" y="484" text-anchor="end" fill="#1f2328" font-weight="400">15.1</text>
<line x1="8" y1="493" x2="586" y2="493" stroke="#d0d7de" stroke-width="0.5"/>
<text x="8" y="511" fill="#1f2328">SendRPC</text>
<text x="212" y="511" text-anchor="end" fill="#1f2328" font-weight="400">14.3</text>
<rect x="226" y="496" width="80" height="21" rx="5" fill="#dafbe1"/>
<text x="304" y="511" text-anchor="end" fill="#1a7f37" font-weight="600">11.7</text>
<text x="396" y="511" text-anchor="end" fill="#1f2328" font-weight="400">20.0</text>
<text x="488" y="511" text-anchor="end" fill="#1f2328" font-weight="400">59.3</text>
<text x="580" y="511" text-anchor="end" fill="#1f2328" font-weight="400">13.1</text>
<line x1="8" y1="520" x2="586" y2="520" stroke="#d0d7de" stroke-width="0.5"/>
<text x="8" y="538" fill="#1f2328">Static</text>
<text x="212" y="538" text-anchor="end" fill="#1f2328" font-weight="400">6.5</text>
<rect x="226" y="523" width="80" height="21" rx="5" fill="#dafbe1"/>
<text x="304" y="538" text-anchor="end" fill="#1a7f37" font-weight="600">4.0</text>
<text x="396" y="538" text-anchor="end" fill="#1f2328" font-weight="400">8.8</text>
<text x="488" y="538" text-anchor="end" fill="#1f2328" font-weight="400">7.3</text>
<text x="580" y="538" text-anchor="end" fill="#1f2328" font-weight="400">8.5</text>
<line x1="8" y1="547" x2="586" y2="547" stroke="#d0d7de" stroke-width="0.5"/>
<text x="8" y="565" fill="#1f2328">SpawnChurn</text>
<text x="212" y="565" text-anchor="end" fill="#1f2328" font-weight="400">21.7</text>
<rect x="226" y="550" width="80" height="21" rx="5" fill="#dafbe1"/>
<text x="304" y="565" text-anchor="end" fill="#1a7f37" font-weight="600">9.0</text>
<text x="396" y="565" text-anchor="end" fill="#1f2328" font-weight="400">14.5</text>
<text x="488" y="565" text-anchor="end" fill="#1f2328" font-weight="400">9.7</text>
<text x="580" y="565" text-anchor="end" fill="#1f2328" font-weight="400">17.5</text>
<line x1="8" y1="574" x2="586" y2="574" stroke="#d0d7de" stroke-width="0.5"/>
<text x="8" y="592" fill="#1f2328">ClientInput</text>
<text x="212" y="592" text-anchor="end" fill="#1f2328" font-weight="400">8.1</text>
<text x="304" y="592" text-anchor="end" fill="#1f2328" font-weight="400">5.7</text>
<text x="396" y="592" text-anchor="end" fill="#1f2328" font-weight="400">10.7</text>
<rect x="410" y="577" width="80" height="21" rx="5" fill="#dafbe1"/>
<text x="488" y="592" text-anchor="end" fill="#1a7f37" font-weight="600">5.3</text>
<text x="580" y="592" text-anchor="end" fill="#1f2328" font-weight="400">24.4</text>
<line x1="8" y1="601" x2="586" y2="601" stroke="#d0d7de" stroke-width="0.5"/>
<text x="8" y="619" fill="#1f2328">SyncVars</text>
<text x="212" y="619" text-anchor="end" fill="#1f2328" font-weight="400">12.2</text>
<rect x="226" y="604" width="80" height="21" rx="5" fill="#dafbe1"/>
<text x="304" y="619" text-anchor="end" fill="#1a7f37" font-weight="600">9.3</text>
<text x="396" y="619" text-anchor="end" fill="#1f2328" font-weight="400">17.1</text>
<text x="488" y="619" text-anchor="end" fill="#1f2328" font-weight="400">46.4</text>
<text x="580" y="619" text-anchor="end" fill="#1f2328" font-weight="400">12.9</text>
<line x1="8" y1="628" x2="586" y2="628" stroke="#d0d7de" stroke-width="0.5"/>
</svg>