<svg xmlns="http://www.w3.org/2000/svg" width="608" height="211" viewBox="0 0 608 211" role="img" aria-label="Benchmark summary tables">
<style>text{font-family:-apple-system, BlinkMacSystemFont, Segoe UI, Helvetica, Arial, sans-serif;font-size:13px;font-variant-numeric:tabular-nums}</style>
<text x="8" y="25" font-weight="600" fill="#1f2328">At a glance, 100 connections @ 60 Hz</text>
<text x="600" y="25" text-anchor="end" fill="#656d76" font-size="12">× best netcode, geometric mean over the load tests; lower is better</text>
<text x="8" y="55" fill="#656d76" font-size="11" letter-spacing="0.5">NETCODE</text>
<text x="222" y="55" text-anchor="end" fill="#656d76" font-size="11" letter-spacing="0.5">SERVER CPU</text>
<text x="346" y="55" text-anchor="end" fill="#656d76" font-size="11" letter-spacing="0.5">COLLECTIONS</text>
<text x="470" y="55" text-anchor="end" fill="#656d76" font-size="11" letter-spacing="0.5">FRAME P99</text>
<text x="594" y="55" text-anchor="end" fill="#656d76" font-size="11" letter-spacing="0.5">WINS</text>
<line x1="8" y1="68" x2="600" y2="68" stroke="#d0d7de" stroke-width="1"/>
<rect x="8" y="77" width="9" height="9" rx="2" fill="#eb6834"/>
<text x="23" y="86" fill="#1f2328" font-weight="600">PurrNet</text>
<rect x="112" y="71" width="112" height="21" rx="5" fill="#dafbe1"/>
<text x="222" y="86" text-anchor="end" fill="#1a7f37" font-weight="600">1.96×</text>
<rect x="236" y="71" width="112" height="21" rx="5" fill="#dafbe1"/>
<text x="346" y="86" text-anchor="end" fill="#1a7f37" font-weight="600">5</text>
<rect x="360" y="71" width="112" height="21" rx="5" fill="#dafbe1"/>
<text x="470" y="86" text-anchor="end" fill="#1a7f37" font-weight="600">16.7 ms</text>
<text x="594" y="86" text-anchor="end" fill="#1f2328" font-weight="400">3 / 12</text>
<line x1="8" y1="95" x2="600" y2="95" stroke="#d0d7de" stroke-width="0.5"/>
<rect x="8" y="104" width="9" height="9" rx="2" fill="#2a78d6"/>
<text x="23" y="113" fill="#1f2328" font-weight="600">FishNet</text>
<text x="222" y="113" text-anchor="end" fill="#1f2328" font-weight="400">2.27×</text>
<text x="346" y="113" text-anchor="end" fill="#1f2328" font-weight="400">317</text>
<text x="470" y="113" text-anchor="end" fill="#1f2328" font-weight="400">17.6 ms</text>
<text x="594" y="113" text-anchor="end" fill="#1f2328" font-weight="400">1 / 12</text>
<line x1="8" y1="122" x2="600" y2="122" stroke="#d0d7de" stroke-width="0.5"/>
<rect x="8" y="131" width="9" height="9" rx="2" fill="#1baf7a"/>
<text x="23" y="140" fill="#1f2328" font-weight="600">Mirror</text>
<text x="222" y="140" text-anchor="end" fill="#1f2328" font-weight="400">3.14×</text>
<text x="346" y="140" text-anchor="end" fill="#1f2328" font-weight="400">171</text>
<rect x="360" y="125" width="112" height="21" rx="5" fill="#dafbe1"/>
<text x="470" y="140" text-anchor="end" fill="#1a7f37" font-weight="600">16.7 ms</text>
<text x="594" y="140" text-anchor="end" fill="#1f2328" font-weight="400">0 / 12</text>
<line x1="8" y1="149" x2="600" y2="149" stroke="#d0d7de" stroke-width="0.5"/>
<rect x="8" y="158" width="9" height="9" rx="2" fill="#eda100"/>
<text x="23" y="167" fill="#1f2328" font-weight="600">NGO</text>
<text x="222" y="167" text-anchor="end" fill="#1f2328" font-weight="400">2.93×</text>
<text x="346" y="167" text-anchor="end" fill="#1f2328" font-weight="400">132</text>
<text x="470" y="167" text-anchor="end" fill="#1f2328" font-weight="400">11309.8 ms</text>
<text x="594" y="167" text-anchor="end" fill="#1f2328" font-weight="400">2 / 12</text>
<line x1="8" y1="176" x2="600" y2="176" stroke="#d0d7de" stroke-width="0.5"/>
<rect x="8" y="185" width="9" height="9" rx="2" fill="#e87ba4"/>
<text x="23" y="194" fill="#1f2328" font-weight="600">Fusion</text>
<text x="222" y="194" text-anchor="end" fill="#1f2328" font-weight="400">11.9×</text>
<text x="346" y="194" text-anchor="end" fill="#1f2328" font-weight="400">102</text>
<text x="470" y="194" text-anchor="end" fill="#1f2328" font-weight="400">1000.4 ms</text>
<rect x="484" y="179" width="112" height="21" rx="5" fill="#dafbe1"/>
<text x="594" y="194" text-anchor="end" fill="#1a7f37" font-weight="600">6 / 12</text>
<line x1="8" y1="203" x2="600" y2="203" stroke="#d0d7de" stroke-width="0.5"/>
</svg>